<?xml version="1.0" encoding="UTF-8"?>
<svg id="Layer_2" data-name="Layer 2" xmlns="http://www.w3.org/2000/svg" viewBox="0 0 779.09 685.92">
  <defs>
    <style>
      .cls-1, .cls-2 {
        fill: #fff;
        stroke-width: 0px;
      }

      .cls-2 {
        fill-rule: evenodd;
      }
    </style>
  </defs>
  <g id="Layer_1-2" data-name="Layer 1">
    <g>
      <path class="cls-2" d="m274.49,375.68l116.23,117.27,116.23-117.27L398.82,6.1c-2.38-8.13-13.8-8.13-16.18,0l-108.14,369.58Zm185.15-.94l-29.79,40.9c-1.04,1.42-3.27.51-3.03-1.24l5.49-39.66-41.58-97.9-41.58,97.9,5.48,39.66c.24,1.75-1.99,2.67-3.03,1.24l-29.79-40.9,68.92-152.04,68.92,152.04Z"/>
      <path class="cls-1" d="m765.25,112.1l-229.43,187.39c-6.18,5.04-2.64,15.12,5.31,15.12h73.5l-225.08,251.52-225.08-251.52h73.5c7.95,0,11.48-10.08,5.31-15.12L13.84,112.1c-7.82-6.39-18.16,3.91-11.93,11.88l116.33,148.9H37.2c-7.27,0-11.13,8.65-6.32,14.15l343.7,392.12c7.92,9.04,21.99,9.04,29.92,0l343.7-392.12c4.82-5.49.95-14.15-6.32-14.15h-81.03l116.33-148.9c6.23-7.97-4.11-18.27-11.93-11.88Z"/>
    </g>
  </g>
</svg>