<svg width="195" height="36" viewBox="0 0 195 36" fill="none" xmlns="http://www.w3.org/2000/svg">
    <path fill-rule="evenodd" clip-rule="evenodd" d="M13.7995 19.3863L19.6429 25.282L25.4862 19.3863L20.0495 0.806663C19.9299 0.397779 19.3559 0.397779 19.2362 0.806663L13.7995 19.3863ZM23.1075 19.339L21.6097 21.3952C21.5575 21.4667 21.4452 21.4206 21.4574 21.3327L21.7332 19.339L19.6429 14.4175L17.5526 19.339L17.8283 21.3327C17.8405 21.4206 17.7282 21.4667 17.676 21.3952L16.1783 19.339L19.6429 11.6956L23.1075 19.339Z" fill="white"/>
    <path d="M38.471 6.13541L26.9372 15.556C26.6266 15.8096 26.8044 16.3162 27.204 16.3162H30.8988L19.5833 28.9608L8.26785 16.3162H11.9627C12.3623 16.3162 12.54 15.8096 12.2295 15.556L0.695702 6.13541C0.302707 5.81441 -0.217066 6.33208 0.0959402 6.73273L5.94392 14.2183H1.87013C1.5048 14.2183 1.3105 14.6534 1.55253 14.9295L18.8313 34.6421C19.2297 35.0965 19.937 35.0965 20.3353 34.6421L37.6141 14.9295C37.8562 14.6534 37.6619 14.2183 37.2965 14.2183H33.2227L39.0707 6.73273C39.3837 6.33208 38.864 5.81441 38.471 6.13541Z" fill="white"/>
    <path d="M53.1247 23.338V14.12C53.1247 11.7 51.8267 11.392 51.6507 11.348H58.9107C62.6727 11.348 64.3667 13.592 64.3667 15.77C64.3667 17.97 62.9367 19.51 60.9347 19.884C61.3307 20.148 61.7047 20.632 62.0347 21.204L63.7067 24.13C64.6087 25.736 65.4447 25.978 65.6427 26H60.5167L58.3387 21.82C57.8107 20.786 57.5247 20.632 57.0407 20.632H56.7987V23.338C56.7987 25.67 57.8107 25.978 58.0087 26H51.8927C52.0687 25.978 53.1247 25.736 53.1247 23.338ZM56.7767 18.102H58.2287C59.8347 18.102 60.5167 17.002 60.5167 15.858C60.5167 14.758 59.7467 13.79 58.1847 13.79H56.7767V18.102ZM69.4638 23.558V13.9C69.4638 11.678 68.4078 11.392 68.2538 11.348H74.5238C74.4138 11.37 73.3138 11.634 73.3138 13.9V23.558C73.3138 25.692 74.3038 25.978 74.5018 26H68.2538C68.4298 25.978 69.4638 25.736 69.4638 23.558ZM78.6789 23.294V13.944C78.6789 11.656 77.3369 11.37 77.1389 11.348H87.8969V15.836C87.5669 14.934 86.9729 13.79 85.0369 13.79H82.5289V17.398H84.7069C86.2689 17.398 86.4889 16.76 86.5109 16.628V20.632C86.4889 20.544 86.2469 19.862 84.7289 19.862H82.5289V23.404C82.5289 25.692 83.4749 25.978 83.7169 26H77.3589C77.5349 25.978 78.6789 25.736 78.6789 23.294ZM95.2509 23.316V13.79H92.6549C91.2689 13.79 90.7629 14.868 90.3669 15.88H90.3449L90.7409 11.348H103.677L104.051 15.88C103.633 14.868 103.127 13.79 101.213 13.79H99.1449V23.316C99.1449 25.78 100.201 25.978 100.355 26H94.0629C94.3049 25.978 95.2509 25.67 95.2509 23.316ZM108.121 23.14V13.9C108.121 11.656 106.823 11.392 106.559 11.348H112.983L116.437 18.96L119.825 11.348H125.589C125.413 11.37 124.313 11.59 124.313 13.966V23.272C124.313 25.648 125.391 25.978 125.589 26H119.561C119.715 25.978 120.683 25.736 120.683 23.272V15.902L115.909 26.374L110.959 15.902V23.162C110.959 25.648 112.191 25.956 112.455 26H106.669C106.867 25.978 108.121 25.714 108.121 23.14ZM129.88 23.008L134.478 11.348H137.778L142.684 23.118C143.696 25.582 144.686 25.978 144.884 26H137.976C138.174 25.978 138.856 25.78 138.856 24.856C138.856 24.592 138.614 23.778 138.284 22.986H132.872C132.652 23.69 132.432 24.526 132.432 24.746C132.432 25.758 133.136 25.978 133.334 26H127.702C127.9 25.956 128.846 25.626 129.88 23.008ZM133.774 20.632H137.36L135.534 15.88L133.774 20.632ZM148.082 23.338V14.032C148.082 11.7 147.048 11.392 146.85 11.348H153.164C153.01 11.37 151.976 11.634 151.976 14.032V17.662L155.144 14.12C156.134 12.998 156.42 12.338 156.42 11.942C156.42 11.48 155.98 11.37 155.848 11.348H162.448C162.316 11.37 161.04 11.612 158.796 14.076L155.452 17.86L159.434 23.14C161.348 25.648 162.36 25.956 162.58 26H156.948L151.976 19.334V23.338C151.976 25.692 152.966 25.978 153.164 26H146.85C147.026 25.978 148.082 25.714 148.082 23.338ZM166.342 23.096V13.988C166.342 11.656 164.956 11.37 164.758 11.348H175.582V15.88C175.252 14.846 174.658 13.79 172.744 13.79H170.192V17.398H172.502C174.02 17.398 174.262 16.782 174.306 16.65V20.61C174.306 20.61 174.196 19.862 172.546 19.862H170.192V23.492H173.008C174.834 23.492 175.648 22.876 176.55 21.314L175.758 26H165.022C165.198 25.978 166.342 25.692 166.342 23.096ZM180.558 23.338V14.12C180.558 11.7 179.26 11.392 179.084 11.348H186.344C190.106 11.348 191.8 13.592 191.8 15.77C191.8 17.97 190.37 19.51 188.368 19.884C188.764 20.148 189.138 20.632 189.468 21.204L191.14 24.13C192.042 25.736 192.878 25.978 193.076 26H187.95L185.772 21.82C185.244 20.786 184.958 20.632 184.474 20.632H184.232V23.338C184.232 25.67 185.244 25.978 185.442 26H179.326C179.502 25.978 180.558 25.736 180.558 23.338ZM184.21 18.102H185.662C187.268 18.102 187.95 17.002 187.95 15.858C187.95 14.758 187.18 13.79 185.618 13.79H184.21V18.102Z" fill="white"/>
</svg>
    